<svg data-v-423bf9ae="" xmlns="http://www.w3.org/2000/svg" viewBox="0 0 975.0285993303571 193" class="fontAboveSlogan"><!----><!----><!----><g data-v-423bf9ae="" id="828e040c-ec54-4924-9dac-3df9b86110c0" fill="white" transform="matrix(12.244898912460865,0,0,12.244898912460865,410.9159153881589,-22.702657559076087)"><path d="M0.12 8.85L0.12 1.93L2.06 1.93L2.06 5.95L1.69 5.95L1.69 10.10L4.58 10.10L4.58 10.97L4.01 10.97L4.01 11.17L4.58 11.17L4.58 11.73L2.71 11.73L2.71 11.58L0.14 11.58L0.14 11.58Q0.12 11.42 0.12 11.33L0.12 11.33L0.12 9.15L0.62 9.15L0.62 8.85L0.12 8.85ZM1.95 9.79L1.82 9.59L1.93 9.59L1.93 9.59Q2.02 9.71 2.03 9.71L2.03 9.71L2.03 9.71Q2.08 9.59 2.11 9.59L2.11 9.59L2.21 9.59L2.21 9.59Q2.19 9.65 2.08 9.79L2.08 9.79L2.08 9.79Q2.12 9.86 2.23 10.02L2.23 10.02L2.11 10.02L2.11 10.02Q2.03 9.95 2.03 9.88L2.03 9.88L2.03 9.88Q2.02 9.88 1.91 10.02L1.91 10.02L1.82 10.02L1.82 10.00L1.95 9.80L1.95 9.79ZM4.58 11.17L4.58 10.97L5.29 10.97L5.29 11.17L4.58 11.17ZM8.91 1.93L8.91 1.93L8.93 1.93L8.93 1.93Q11.12 1.93 11.61 3.36L11.61 3.36L11.61 3.36Q11.84 3.89 11.84 4.85L11.84 4.85L10.25 5.07L10.23 5.03L10.23 5.00L10.23 5.00Q10.23 3.84 9.45 3.62L9.45 3.62L9.45 3.62Q9.21 3.55 8.87 3.53L8.87 3.53L8.87 3.53Q8.02 3.53 7.77 4.44L7.77 4.44L7.77 4.44Q7.63 5.05 7.63 5.88L7.63 5.88L7.63 6.64L7.63 6.64Q7.63 7.98 7.66 8.65L7.66 8.65L8.07 8.65L8.07 10.02L10.01 10.02L10.01 7.68L8.78 7.68L8.78 6.43L12.49 6.43L12.49 6.71L12.00 6.71L12.00 8.16L11.01 8.16L11.01 8.61L11.50 8.61L11.50 11.39L6.20 11.39L6.20 9.91L5.60 9.91L5.60 9.78L5.86 9.78L5.86 9.63L6.20 9.63L6.20 9.08L5.27 9.08L5.27 7.90L5.71 7.90L5.71 7.90Q5.69 7.38 5.69 7.29L5.69 7.29L5.69 7.29Q5.69 4.18 6.04 3.53L6.04 3.53L6.04 3.53Q6.13 3.13 6.60 2.64L6.60 2.64L6.60 2.64Q7.29 1.93 8.91 1.93ZM7.81 8.52L7.81 8.09L7.90 8.09L7.90 8.52L7.81 8.52ZM11.79 8.67L11.79 8.67L11.79 8.67Q11.89 8.71 11.90 8.76L11.90 8.76L11.90 8.82L11.90 8.82Q11.90 8.85 11.84 8.89L11.84 8.89L11.84 8.89Q11.85 8.91 11.85 8.93L11.85 8.93L11.89 8.93L11.89 8.90L11.97 8.90L11.97 8.92L11.97 8.92Q11.97 9.00 11.94 9.00L11.94 9.00L11.94 9.00Q11.94 9.02 12.02 9.11L12.02 9.11L11.92 9.11L11.87 9.08L11.87 9.08Q11.81 9.13 11.74 9.13L11.74 9.13L11.74 9.13Q11.63 9.13 11.61 8.98L11.61 8.98L11.61 8.98Q11.63 8.91 11.69 8.89L11.69 8.89L11.69 8.89Q11.68 8.80 11.68 8.76L11.68 8.76L11.68 8.76Q11.68 8.71 11.79 8.67ZM11.76 8.79L11.76 8.79L11.76 8.79Q11.77 8.82 11.77 8.84L11.77 8.84L11.77 8.84Q11.80 8.84 11.82 8.79L11.82 8.79L11.82 8.79Q11.82 8.76 11.79 8.76L11.79 8.76L11.79 8.76Q11.76 8.76 11.76 8.79ZM11.82 9.00L11.74 8.93L11.71 8.98L11.71 9.00L11.71 9.00Q11.71 9.02 11.76 9.05L11.76 9.05L11.76 9.05Q11.82 9.02 11.82 9.00L11.82 9.00ZM11.79 9.37L11.79 9.37L11.79 9.37Q11.89 9.41 11.90 9.45L11.90 9.45L11.90 9.52L11.90 9.52Q11.90 9.54 11.84 9.58L11.84 9.58L11.84 9.58Q11.85 9.62 11.85 9.63L11.85 9.63L11.89 9.63L11.89 9.60L11.97 9.60L11.97 9.62L11.97 9.62Q11.97 9.70 11.94 9.70L11.94 9.70L11.94 9.70Q11.94 9.71 12.02 9.81L12.02 9.81L11.92 9.81L11.87 9.78L11.87 9.78Q11.81 9.83 11.74 9.83L11.74 9.83L11.74 9.83Q11.63 9.83 11.61 9.68L11.61 9.68L11.61 9.68Q11.63 9.62 11.69 9.58L11.69 9.58L11.69 9.58Q11.68 9.50 11.68 9.45L11.68 9.45L11.68 9.45Q11.68 9.41 11.79 9.37ZM11.76 9.49L11.76 9.49L11.76 9.49Q11.77 9.52 11.77 9.54L11.77 9.54L11.77 9.54Q11.80 9.54 11.82 9.49L11.82 9.49L11.82 9.49Q11.82 9.45 11.79 9.45L11.79 9.45L11.79 9.45Q11.76 9.46 11.76 9.49ZM8.37 9.49L8.37 9.49L8.37 9.49Q8.59 9.52 8.59 9.68L8.59 9.68L8.59 9.73L8.59 9.73Q8.57 9.94 8.37 9.94L8.37 9.94L8.36 9.94L8.36 9.94Q8.16 9.94 8.16 9.70L8.16 9.70L8.16 9.70Q8.22 9.49 8.37 9.49ZM8.75 9.57L8.75 9.50L9.11 9.50L9.11 9.60L9.00 9.60L9.00 9.91L9.00 9.91Q9.00 9.94 8.96 9.94L8.96 9.94L8.91 9.94L8.91 9.94Q8.88 9.94 8.88 9.91L8.88 9.91L8.88 9.60L8.78 9.60L8.78 9.60Q8.75 9.60 8.75 9.57L8.75 9.57ZM8.28 9.70L8.28 9.70L8.28 9.78L8.28 9.78Q8.28 9.80 8.35 9.84L8.35 9.84L8.42 9.84L8.42 9.84Q8.48 9.84 8.49 9.71L8.49 9.71L8.49 9.71Q8.49 9.63 8.41 9.58L8.41 9.58L8.39 9.58L8.39 9.58Q8.28 9.58 8.28 9.70ZM11.74 9.63L11.74 9.63L11.71 9.68L11.71 9.70L11.71 9.70Q11.71 9.72 11.76 9.75L11.76 9.75L11.76 9.75Q11.82 9.72 11.82 9.70L11.82 9.70L11.82 9.70Q11.75 9.63 11.74 9.63ZM11.77 10.07L11.77 10.07L11.77 10.07Q11.85 10.07 11.90 10.15L11.90 10.15L11.90 10.22L11.90 10.22Q11.90 10.25 11.84 10.28L11.84 10.28L11.84 10.28Q11.85 10.32 11.85 10.33L11.85 10.33L11.89 10.33L11.89 10.30L11.97 10.30L11.97 10.32L11.97 10.32Q11.97 10.40 11.94 10.40L11.94 10.40L11.94 10.40Q11.94 10.41 12.02 10.51L12.02 10.51L11.92 10.51L11.87 10.48L11.87 10.48Q11.81 10.53 11.74 10.53L11.74 10.53L11.74 10.53Q11.63 10.53 11.61 10.38L11.61 10.38L11.61 10.38Q11.63 10.32 11.69 10.28L11.69 10.28L11.68 10.17L11.68 10.15L11.68 10.15Q11.68 10.12 11.77 10.07ZM11.76 10.19L11.76 10.19L11.76 10.19Q11.77 10.22 11.77 10.23L11.77 10.23L11.77 10.23Q11.80 10.23 11.82 10.19L11.82 10.19L11.82 10.19Q11.82 10.15 11.79 10.15L11.79 10.15L11.79 10.15Q11.76 10.16 11.76 10.19ZM11.82 10.40L11.74 10.33L11.71 10.38L11.71 10.40L11.71 10.40Q11.71 10.42 11.76 10.45L11.76 10.45L11.76 10.45Q11.82 10.42 11.82 10.40L11.82 10.40ZM11.77 10.77L11.77 10.77L11.77 10.77Q11.85 10.77 11.90 10.86L11.90 10.86L11.90 10.92L11.90 10.92Q11.90 10.94 11.84 10.99L11.84 10.99L11.84 10.99Q11.85 11.01 11.85 11.03L11.85 11.03L11.89 11.03L11.89 11.00L11.97 11.00L11.97 11.01L11.94 11.13L11.94 11.13Q11.96 11.13 12.02 11.21L12.02 11.21L11.92 11.21L11.87 11.18L11.87 11.18Q11.81 11.22 11.74 11.22L11.74 11.22L11.74 11.22Q11.63 11.22 11.61 11.08L11.61 11.08L11.61 11.08Q11.63 11.01 11.69 10.99L11.69 10.99L11.68 10.87L11.68 10.86L11.68 10.86Q11.68 10.82 11.77 10.77ZM11.76 10.88L11.76 10.88L11.76 10.88Q11.77 10.92 11.77 10.93L11.77 10.93L11.77 10.93Q11.80 10.93 11.82 10.88L11.82 10.88L11.82 10.88Q11.82 10.86 11.79 10.86L11.79 10.86L11.79 10.86Q11.76 10.86 11.76 10.88ZM11.82 11.09L11.74 11.03L11.71 11.08L11.71 11.09L11.71 11.09Q11.71 11.12 11.76 11.14L11.76 11.14L11.76 11.14Q11.82 11.12 11.82 11.09L11.82 11.09ZM7.56 11.73L7.56 11.53L9.58 11.53L9.58 11.73L7.56 11.73Z"></path></g><!----><!----><g data-v-423bf9ae="" id="042d3d60-a0b6-477e-a09b-83e6e052f2d9" fill="white" transform="matrix(5.714285714285714,0,0,5.714285714285714,-7.199996641704047,119.00000282696315)"><path d="M1.26 2.80L1.26 12.60L5.74 12.60L5.74 12.19L1.68 12.19L1.68 2.80ZM14.70 7.48L19.04 7.48L19.04 7.08L14.70 7.08L14.70 3.21L19.32 3.21L19.32 2.80L14.28 2.80L14.28 12.60L19.32 12.60L19.32 12.19L14.70 12.19ZM31.92 12.03L28.14 2.80L27.65 2.80L31.92 12.95L36.19 2.80L35.70 2.80ZM45.08 7.48L49.42 7.48L49.42 7.08L45.08 7.08L45.08 3.21L49.70 3.21L49.70 2.80L44.66 2.80L44.66 12.60L49.70 12.60L49.70 12.19L45.08 12.19ZM59.08 2.80L59.08 12.60L63.56 12.60L63.56 12.19L59.50 12.19L59.50 2.80ZM91.98 7.63L87.92 7.63L87.92 8.11L91.50 8.11C91.42 9.32 91.02 10.32 90.31 11.09C89.60 11.87 88.67 12.26 87.50 12.26C86.21 12.26 85.17 11.82 84.38 10.94C83.58 10.06 83.19 8.98 83.19 7.70C83.19 6.40 83.59 5.32 84.40 4.45C85.21 3.57 86.24 3.14 87.50 3.14C88.25 3.14 88.94 3.31 89.58 3.65C90.22 4.00 90.73 4.47 91.11 5.05L91.50 4.75C91.07 4.11 90.51 3.61 89.82 3.24C89.14 2.87 88.37 2.69 87.50 2.69C86.15 2.69 85.02 3.17 84.11 4.13C83.20 5.09 82.74 6.28 82.74 7.70C82.74 9.12 83.20 10.31 84.11 11.27C85.02 12.23 86.15 12.71 87.50 12.71C88.87 12.71 89.96 12.22 90.77 11.23C91.58 10.25 91.98 9.05 91.98 7.63ZM101.43 2.80ZM101.01 2.80L101.01 12.60L101.43 12.60L101.43 8.48L102.98 8.48L106.11 12.60L106.65 12.60L103.46 8.47C104.36 8.41 105.07 8.15 105.61 7.67C106.15 7.20 106.41 6.52 106.41 5.64C106.41 4.71 106.11 4.00 105.50 3.52C104.90 3.04 104.10 2.80 103.11 2.80ZM101.43 3.21L103.11 3.21C103.98 3.21 104.67 3.41 105.20 3.83C105.72 4.24 105.98 4.85 105.98 5.64C105.98 6.44 105.72 7.04 105.20 7.45C104.67 7.87 103.98 8.08 103.11 8.08L101.43 8.08ZM114.91 7.70C114.91 6.38 115.32 5.29 116.13 4.41C116.94 3.53 117.97 3.09 119.21 3.09C120.45 3.09 121.48 3.53 122.29 4.41C123.10 5.29 123.51 6.38 123.51 7.70C123.51 9.02 123.10 10.11 122.29 10.99C121.48 11.87 120.45 12.31 119.21 12.31C117.97 12.31 116.94 11.87 116.13 10.99C115.32 10.11 114.91 9.02 114.91 7.70ZM114.49 7.70C114.49 9.16 114.94 10.36 115.83 11.30C116.72 12.24 117.85 12.71 119.21 12.71C120.57 12.71 121.70 12.24 122.59 11.30C123.48 10.36 123.93 9.16 123.93 7.70C123.93 6.24 123.48 5.04 122.59 4.10C121.70 3.16 120.57 2.69 119.21 2.69C117.85 2.69 116.72 3.16 115.83 4.10C114.94 5.04 114.49 6.24 114.49 7.70ZM132.82 2.80L132.82 9.24C132.82 10.29 133.10 11.13 133.67 11.77C134.24 12.42 135.00 12.74 135.94 12.74C136.88 12.74 137.64 12.42 138.21 11.77C138.78 11.13 139.06 10.29 139.06 9.24L139.06 2.80L138.64 2.80L138.64 9.24C138.64 10.17 138.39 10.92 137.88 11.47C137.37 12.02 136.72 12.29 135.94 12.29C135.16 12.29 134.51 12.02 134.00 11.47C133.49 10.92 133.24 10.17 133.24 9.24L133.24 2.80ZM155.44 2.80L155.44 11.79L147.95 2.45L147.95 12.60L148.37 12.60L148.37 3.61L155.86 12.95L155.86 2.80ZM164.82 2.80L164.82 12.60L167.20 12.60C168.62 12.60 169.76 12.15 170.61 11.25C171.46 10.35 171.89 9.17 171.89 7.70C171.89 6.23 171.46 5.05 170.61 4.15C169.76 3.25 168.62 2.80 167.20 2.80ZM165.24 3.22L167.20 3.22C168.50 3.22 169.53 3.63 170.30 4.46C171.06 5.28 171.44 6.37 171.44 7.70C171.44 9.09 171.07 10.18 170.31 10.98C169.55 11.78 168.52 12.18 167.20 12.18L165.24 12.18Z"></path></g></svg>